<svg width="16" height="26" viewBox="0 0 16 26" fill="none" xmlns="http://www.w3.org/2000/svg">
<path d="M14.9677 7.41567C15.1361 7.58564 15.1361 7.84059 14.9677 8.01057C14.7994 8.18054 14.5469 8.18054 14.3785 8.01057L8.67914 1.92633V24.7025C8.67914 24.9575 8.51079 25.1275 8.25826 25.1275C8.00573 25.1275 7.83738 24.9575 7.83738 24.7025V1.92633L1.80388 8C1.63553 8.16997 1.383 8.16997 1.21464 8C1.04629 7.83003 1.04629 7.57507 1.21464 7.4051L7.96364 0.609046C8.04782 0.52406 8.132 0.481567 8.25826 0.481567C8.38453 0.481567 8.4687 0.52406 8.55288 0.609046L14.9677 7.41567Z" fill="#BBBBBB"/>
<path d="M14.9677 7.41567L14.7858 7.58718L14.7901 7.59159L14.9677 7.41567ZM14.3785 8.01057L14.196 8.18154L14.2009 8.1865L14.3785 8.01057ZM8.67914 1.92633L8.8616 1.75541L8.42914 1.29376V1.92633H8.67914ZM7.83738 1.92633H8.08738V1.31993L7.66002 1.75014L7.83738 1.92633ZM1.80388 8L1.62652 7.82381L1.62626 7.82407L1.80388 8ZM1.21464 7.4051L1.03725 7.22894L1.03702 7.22917L1.21464 7.4051ZM7.96364 0.609046L8.14103 0.785208L8.14127 0.784975L7.96364 0.609046ZM8.55288 0.609046L8.73487 0.43753L8.7305 0.433117L8.55288 0.609046ZM14.7901 7.59159C14.862 7.66413 14.862 7.7621 14.7901 7.83464L15.1454 8.1865C15.4102 7.91909 15.4102 7.50714 15.1454 7.23974L14.7901 7.59159ZM14.7901 7.83464C14.7196 7.90585 14.6267 7.90585 14.5561 7.83464L14.2009 8.1865C14.4671 8.45523 14.8792 8.45523 15.1454 8.1865L14.7901 7.83464ZM14.561 7.83965L8.8616 1.75541L8.49669 2.09724L14.1961 8.18148L14.561 7.83965ZM8.42914 1.92633V24.7025H8.92914V1.92633H8.42914ZM8.42914 24.7025C8.42914 24.7739 8.4066 24.8137 8.38578 24.8347C8.36517 24.8555 8.32699 24.8775 8.25826 24.8775V25.3775C8.44206 25.3775 8.61433 25.3144 8.74102 25.1865C8.86751 25.0588 8.92914 24.8861 8.92914 24.7025H8.42914ZM8.25826 24.8775C8.18953 24.8775 8.15136 24.8555 8.13074 24.8347C8.10992 24.8137 8.08738 24.7739 8.08738 24.7025H7.58738C7.58738 24.8861 7.64902 25.0588 7.7755 25.1865C7.9022 25.3144 8.07446 25.3775 8.25826 25.3775V24.8775ZM8.08738 24.7025V1.92633H7.58738V24.7025H8.08738ZM7.66002 1.75014L1.62652 7.82381L1.98124 8.17619L8.01474 2.10252L7.66002 1.75014ZM1.62626 7.82407C1.55573 7.89528 1.4628 7.89528 1.39226 7.82407L1.03702 8.17593C1.3032 8.44466 1.71533 8.44466 1.9815 8.17593L1.62626 7.82407ZM1.39226 7.82407C1.32042 7.75153 1.32042 7.65357 1.39226 7.58103L1.03702 7.22917C0.772164 7.49658 0.772164 7.90852 1.03702 8.17593L1.39226 7.82407ZM1.39203 7.58126L8.14103 0.785208L7.78626 0.432885L1.03725 7.22894L1.39203 7.58126ZM8.14127 0.784975C8.1687 0.757278 8.1861 0.74665 8.19752 0.741527C8.20778 0.736923 8.22461 0.731567 8.25826 0.731567V0.231567C8.16565 0.231567 8.07726 0.247459 7.99282 0.285347C7.90954 0.322718 7.84277 0.375828 7.78602 0.433117L8.14127 0.784975ZM8.25826 0.731567C8.29191 0.731567 8.30875 0.736923 8.31901 0.741527C8.33042 0.74665 8.34783 0.757279 8.37526 0.784975L8.7305 0.433117C8.67376 0.375828 8.60698 0.322717 8.5237 0.285347C8.43926 0.247459 8.35087 0.231567 8.25826 0.231567V0.731567ZM8.37094 0.78051L14.7858 7.58713L15.1497 7.2442L8.73481 0.437583L8.37094 0.78051Z" fill="#BBBBBB"/>
</svg>
