<svg width="10" height="10" viewBox="0 0 10 10" fill="none" xmlns="http://www.w3.org/2000/svg">
<path d="M0.25 1C0.25 0.585787 0.585787 0.25 1 0.25L9 0.25C9.41421 0.25 9.75 0.585787 9.75 1L9.75 9C9.75 9.41421 9.41421 9.75 9 9.75L1 9.75C0.585787 9.75 0.25 9.41421 0.25 9L0.25 1Z" fill="#77BFE6" stroke="#77BFE6" stroke-width="0.5"/>
<path fill-rule="evenodd" clip-rule="evenodd" d="M4.65419 6.61218C4.70974 6.52092 4.75207 6.45347 4.79174 6.38469C5.38955 5.35044 5.98735 4.31618 6.58516 3.28193C6.61822 3.22506 6.64864 3.16422 6.69096 3.11528C6.79545 2.99096 6.95283 2.96583 7.08774 3.04651C7.21867 3.12587 7.27157 3.27928 7.2147 3.42741C7.19619 3.47503 7.16974 3.51867 7.14461 3.56364C6.43835 4.78834 5.73209 6.01437 5.02452 7.23908C4.89755 7.45863 4.70313 7.49698 4.51532 7.32769C4.04713 6.90447 3.58555 6.47595 3.12397 6.04611C2.97188 5.9046 2.96262 5.73266 3.08033 5.59644C3.20068 5.45889 3.39113 5.45228 3.5472 5.59379C3.85271 5.86889 4.15162 6.14928 4.45449 6.42702C4.51268 6.48256 4.57087 6.53679 4.65419 6.61218Z" fill="white" stroke="white" stroke-width="0.3"/>
</svg>
