<svg width="12" height="12" viewBox="0 0 12 12" fill="none" xmlns="http://www.w3.org/2000/svg">
<path fill-rule="evenodd" clip-rule="evenodd" d="M5.99835 1.00143C7.22305 1.00143 8.44776 1.00275 9.67114 1.00011C9.87879 1.00011 10.0825 1.01862 10.2703 1.11252C10.7213 1.33869 10.9699 1.70372 10.9937 2.20894C11.0056 2.45759 10.9964 2.70755 10.9964 2.9562C10.9964 5.17813 10.9964 7.39873 10.995 9.62066C10.995 9.73705 10.995 9.8574 10.9739 9.97114C10.8575 10.5742 10.3615 10.9935 9.74653 10.9948C7.24686 10.9988 4.74587 10.9988 2.2462 10.9948C1.54523 10.9935 1.0043 10.4526 1.00298 9.75159C0.999008 7.25192 0.999008 4.75093 1.00298 2.25126C1.0043 1.53443 1.53597 1.0054 2.25942 1.00275C3.50661 0.997461 4.75248 1.00143 5.99835 1.00143Z" fill="black" stroke="black" stroke-width="0.3"/>
<path fill-rule="evenodd" clip-rule="evenodd" d="M5.65419 7.61218C5.70974 7.52092 5.75207 7.45347 5.79174 7.38469C6.38955 6.35044 6.98735 5.31618 7.58516 4.28193C7.61822 4.22506 7.64864 4.16422 7.69096 4.11528C7.79545 3.99096 7.95283 3.96583 8.08774 4.04651C8.21867 4.12587 8.27157 4.27928 8.2147 4.42741C8.19619 4.47503 8.16974 4.51867 8.14461 4.56364C7.43835 5.78834 6.73209 7.01437 6.02452 8.23908C5.89755 8.45863 5.70313 8.49698 5.51532 8.32769C5.04713 7.90447 4.58555 7.47595 4.12397 7.04611C3.97188 6.9046 3.96262 6.73266 4.08033 6.59644C4.20068 6.45889 4.39113 6.45228 4.5472 6.59379C4.85271 6.86889 5.15162 7.14928 5.45449 7.42702C5.51268 7.48256 5.57087 7.53679 5.65419 7.61218Z" fill="white" stroke="white" stroke-width="0.3"/>
</svg>
