<svg width="22" height="21" viewBox="0 0 22 21" fill="none" xmlns="http://www.w3.org/2000/svg">
<g opacity="0.3">
<path d="M17.0941 13.9711H14.5966C14.3929 13.9711 14.2571 13.8353 14.2571 13.6316C14.2571 13.4278 14.3929 13.292 14.5966 13.292H17.0601C18.8598 13.292 20.3199 11.8319 20.3199 10.0323C20.3199 8.2326 18.8598 6.7725 17.0601 6.7725H17.0262H16.6866L16.6527 6.46689C16.3131 3.71647 13.9702 1.67912 11.2197 1.67912C9.04656 1.67912 7.07712 2.96944 6.19427 4.97284L6.0924 5.17657H5.85471C5.82075 5.17657 5.75284 5.17657 5.71889 5.17657C3.4778 5.17657 1.67814 6.97623 1.67814 9.21732C1.67814 11.4584 3.4778 13.2581 5.71889 13.2581H7.50327C7.707 13.2581 7.84283 13.3939 7.84283 13.5976C7.84283 13.8014 7.707 13.9372 7.50327 13.9372H5.71889C3.10429 13.9372 0.999023 11.8319 0.999023 9.21732C0.999023 6.63667 3.10429 4.53141 5.68493 4.49745C6.70361 2.35823 8.84283 1 11.2197 1C14.2079 1 16.7545 3.17317 17.2639 6.09338C19.3352 6.19525 20.999 7.927 20.999 10.0323C21.033 12.2394 19.2673 13.9711 17.0941 13.9711Z" fill="black" stroke="black" stroke-width="0.3"/>
<path d="M13.868 16.7029C13.7322 16.5671 13.5284 16.5671 13.3926 16.7029L11.3552 18.7402V10.489C11.3552 10.2852 11.2194 10.1494 11.0157 10.1494C10.8119 10.1494 10.6761 10.2852 10.6761 10.489V18.7063L8.63877 16.6689C8.50295 16.5331 8.29921 16.5331 8.16339 16.6689C8.02757 16.8048 8.02757 17.0085 8.16339 17.1443L10.744 19.725C10.778 19.7589 10.8119 19.7929 10.8459 19.8268L11.0496 20.0306L13.9019 17.1783C14.0038 17.0425 14.0038 16.8048 13.868 16.7029Z" fill="black" stroke="black" stroke-width="0.3"/>
</g>
<line x1="20.5343" y1="16.5887" x2="1.53429" y2="1.58866" stroke="#E67777" stroke-width="1.5"/>
</svg>
