<svg width="21" height="20" viewBox="0 0 21 20" fill="none" xmlns="http://www.w3.org/2000/svg">
<path d="M16.29 13.3223H13.9174C13.7239 13.3223 13.5949 13.1933 13.5949 12.9997C13.5949 12.8062 13.7239 12.6771 13.9174 12.6771H16.2577C17.9673 12.6771 19.3544 11.2901 19.3544 9.58044C19.3544 7.8708 17.9673 6.48374 16.2577 6.48374H16.2254H15.9029L15.8706 6.19342C15.548 3.58058 13.3223 1.64515 10.7094 1.64515C8.64498 1.64515 6.77405 2.87092 5.93536 4.7741L5.83859 4.96765H5.61279C5.58053 4.96765 5.51602 4.96765 5.48376 4.96765C3.35478 4.96765 1.64515 6.67728 1.64515 8.80626C1.64515 10.9352 3.35478 12.6449 5.48376 12.6449H7.17888C7.37243 12.6449 7.50146 12.7739 7.50146 12.9675C7.50146 13.161 7.37243 13.29 7.17888 13.29H5.48376C2.99995 13.29 1 11.2901 1 8.80626C1 6.35471 2.99995 4.35476 5.45151 4.3225C6.41922 2.29029 8.45143 1 10.7094 1C13.5481 1 15.9674 3.06447 16.4512 5.83859C18.4189 5.93537 19.9995 7.58049 19.9995 9.58044C20.0318 11.6772 18.3544 13.3223 16.29 13.3223Z" fill="black" stroke="black" stroke-width="0.3"/>
<path d="M13.225 15.9174C13.096 15.7884 12.9024 15.7884 12.7734 15.9174L10.8379 17.8529V10.0143C10.8379 9.8208 10.7089 9.69177 10.5154 9.69177C10.3218 9.69177 10.1928 9.8208 10.1928 10.0143V17.8206L8.25736 15.8852C8.12833 15.7561 7.93479 15.7561 7.80576 15.8852C7.67673 16.0142 7.67673 16.2077 7.80576 16.3368L10.2573 18.7883C10.2896 18.8206 10.3218 18.8528 10.3541 18.8851L10.5476 19.0786L13.2572 16.369C13.354 16.24 13.354 16.0142 13.225 15.9174Z" fill="black" stroke="black" stroke-width="0.3"/>
</svg>
