<svg width="18" height="17" viewBox="0 0 18 17" fill="none" xmlns="http://www.w3.org/2000/svg">
<path d="M6.99974 0.731221C6.90792 0.587193 6.74893 0.5 6.57812 0.5H2.59375C1.4202 0.5 0.5 1.49517 0.5 2.66667V14.3333C0.5 15.5048 1.4202 16.5 2.59375 16.5H15.3438C16.5173 16.5 17.4375 15.5048 17.4375 14.3333V5.16667C17.4375 3.99517 16.5173 3 15.3438 3H8.44608L6.99974 0.731221Z" stroke="black" stroke-linecap="round" stroke-linejoin="round"/>
<mask id="mask0" mask-type="alpha" maskUnits="userSpaceOnUse" x="0" y="4" width="12" height="12">
<path fill-rule="evenodd" clip-rule="evenodd" d="M5.94971 14.9004L0.99996 9.95064L5.95064 4.99997L10.9004 9.94971L5.94971 14.9004Z" fill="white" stroke="white" stroke-width="0.5"/>
</mask>
<g mask="url(#mask0)">
<path d="M10.2065 10.133L10.3846 9.93726L10.2105 9.77017L7.27143 6.8311L7.26773 6.8274C7.19818 6.75581 7.19996 6.64172 7.27143 6.5723C7.34302 6.50275 7.4571 6.50428 7.52665 6.57587L10.7728 9.82198C10.8432 9.89242 10.8432 10.0068 10.7728 10.0772L7.5227 13.3273C7.45851 13.3925 7.35565 13.3994 7.28342 13.3432C7.27704 13.3384 7.27104 13.3331 7.26543 13.3273C7.1955 13.2563 7.19639 13.1421 7.26747 13.072L10.2065 10.133Z" fill="black" stroke="black" stroke-width="0.5"/>
</g>
</svg>
