<svg width="18" height="17" viewBox="0 0 18 17" fill="none" xmlns="http://www.w3.org/2000/svg">
<path d="M6.99974 0.731221C6.90792 0.587193 6.74893 0.5 6.57812 0.5H2.59375C1.4202 0.5 0.5 1.49517 0.5 2.66667V14.3333C0.5 15.5048 1.4202 16.5 2.59375 16.5H15.3438C16.5173 16.5 17.4375 15.5048 17.4375 14.3333V5.16667C17.4375 3.99517 16.5173 3 15.3438 3H8.44608L6.99974 0.731221Z" stroke="black" stroke-linecap="round" stroke-linejoin="round"/>
<mask id="mask0" mask-type="alpha" maskUnits="userSpaceOnUse" x="3" y="2" width="12" height="12">
<path fill-rule="evenodd" clip-rule="evenodd" d="M4 7.94971L8.94975 2.99996L13.9004 7.95064L8.95068 12.9004L4 7.94971Z" fill="white" stroke="white" stroke-width="0.5"/>
</mask>
<g mask="url(#mask0)">
<path d="M8.76729 12.2065L8.96301 12.3846L9.1301 12.2105L12.0692 9.27143L12.0729 9.26773C12.1445 9.19818 12.2585 9.19996 12.328 9.27143C12.3975 9.34302 12.396 9.4571 12.3244 9.52665L9.07829 12.7728C9.00785 12.8432 8.8935 12.8432 8.82306 12.7728L5.573 9.5227C5.50779 9.45851 5.5009 9.35565 5.55705 9.28342C5.5619 9.27704 5.56713 9.27104 5.573 9.26543C5.64395 9.1955 5.75817 9.19639 5.82823 9.26747L8.76729 12.2065Z" fill="black" stroke="black" stroke-width="0.5"/>
</g>
</svg>
