<svg width="16" height="19" viewBox="0 0 16 19" fill="none" xmlns="http://www.w3.org/2000/svg">
<path fill-rule="evenodd" clip-rule="evenodd" d="M10.6081 16.1328C10.6081 17.4566 11.6864 18.5348 13.0101 18.5348C14.3339 18.5348 15.4122 17.4566 15.4122 16.1328C15.4122 14.8091 14.3339 13.7308 13.0101 13.7308C12.2863 13.7308 11.6345 14.0478 11.1936 14.5565L5.57886 10.8934C5.72198 10.5861 5.80405 10.248 5.80405 9.88754C5.80405 9.53298 5.7251 9.19253 5.58638 8.8892L11.2011 5.21859C11.6419 5.72273 12.29 6.04429 13.0101 6.04429C14.3339 6.04429 15.4122 4.96602 15.4122 3.64226C15.4122 2.3185 14.3339 1.24023 13.0101 1.24023C11.6864 1.24023 10.6081 2.3185 10.6081 3.64226C10.6081 4.07174 10.7248 4.4714 10.9234 4.82075L5.33866 8.47634C4.90135 7.87669 4.19876 7.4855 3.40203 7.4855C2.07829 7.4855 1 8.56377 1 9.88754C1 11.2113 2.07829 12.2896 3.40203 12.2896C4.19282 12.2896 4.89311 11.8983 5.33114 11.3062L10.9159 14.9543C10.7205 15.3016 10.6081 15.7071 10.6081 16.1328ZM14.9318 16.1328C14.9318 17.1969 14.0743 18.0544 13.0101 18.0544C11.946 18.0544 11.0885 17.1969 11.0885 16.1328C11.0885 15.0687 11.946 14.2112 13.0101 14.2112C14.0743 14.2112 14.9318 15.0687 14.9318 16.1328ZM3.40202 11.8092C4.46614 11.8092 5.32364 10.9517 5.32364 9.88754C5.32364 8.82341 4.46614 7.96591 3.40202 7.96591C2.33789 7.96591 1.48039 8.82341 1.48039 9.88754C1.48039 10.9517 2.33789 11.8092 3.40202 11.8092ZM14.9318 3.64226C14.9318 4.70639 14.0743 5.56388 13.0101 5.56388C11.946 5.56388 11.0885 4.70639 11.0885 3.64226C11.0885 2.57814 11.946 1.72064 13.0101 1.72064C14.0743 1.72064 14.9318 2.57814 14.9318 3.64226Z" fill="#F3F3F3"/>
<path d="M11.1936 14.5565L11.057 14.7659L11.2397 14.885L11.3825 14.7202L11.1936 14.5565ZM5.57886 10.8934L5.35224 10.7878L5.26072 10.9843L5.44226 11.1028L5.57886 10.8934ZM5.58638 8.8892L5.44959 8.67995L5.2696 8.79761L5.35903 8.99317L5.58638 8.8892ZM11.2011 5.21859L11.3893 5.05404L11.2463 4.89039L11.0643 5.00934L11.2011 5.21859ZM10.9234 4.82075L11.0603 5.02993L11.2567 4.90134L11.1407 4.69722L10.9234 4.82075ZM5.33866 8.47634L5.13667 8.62365L5.27672 8.81568L5.47558 8.68551L5.33866 8.47634ZM5.33114 11.3062L5.46786 11.0969L5.27042 10.968L5.13016 11.1576L5.33114 11.3062ZM10.9159 14.9543L11.1337 15.0769L11.2485 14.873L11.0526 14.745L10.9159 14.9543ZM13.0101 18.2848C11.8245 18.2848 10.8581 17.3185 10.8581 16.1328H10.3581C10.3581 17.5946 11.5483 18.7848 13.0101 18.7848V18.2848ZM15.1622 16.1328C15.1622 17.3185 14.1958 18.2848 13.0101 18.2848V18.7848C14.4719 18.7848 15.6622 17.5946 15.6622 16.1328H15.1622ZM13.0101 13.9808C14.1958 13.9808 15.1622 14.9471 15.1622 16.1328H15.6622C15.6622 14.671 14.4719 13.4808 13.0101 13.4808V13.9808ZM11.3825 14.7202C11.7772 14.2648 12.3607 13.9808 13.0101 13.9808V13.4808C12.2119 13.4808 11.4918 13.8307 11.0047 14.3927L11.3825 14.7202ZM5.44226 11.1028L11.057 14.7659L11.3302 14.3471L5.71547 10.684L5.44226 11.1028ZM5.55405 9.88754C5.55405 10.2093 5.48095 10.5115 5.35224 10.7878L5.80549 10.9989C5.963 10.6608 6.05405 10.2868 6.05405 9.88754H5.55405ZM5.35903 8.99317C5.48334 9.26499 5.55405 9.57007 5.55405 9.88754H6.05405C6.05405 9.49588 5.96686 9.12007 5.81374 8.78523L5.35903 8.99317ZM11.0643 5.00934L5.44959 8.67995L5.72318 9.09845L11.3379 5.42784L11.0643 5.00934ZM13.0101 5.79429C12.366 5.79429 11.7852 5.50684 11.3893 5.05404L11.0129 5.38314C11.4985 5.93861 12.214 6.29429 13.0101 6.29429V5.79429ZM15.1622 3.64226C15.1622 4.82795 14.1958 5.79429 13.0101 5.79429V6.29429C14.4719 6.29429 15.6622 5.1041 15.6622 3.64226H15.1622ZM13.0101 1.49023C14.1958 1.49023 15.1622 2.45657 15.1622 3.64226H15.6622C15.6622 2.18043 14.4719 0.990234 13.0101 0.990234V1.49023ZM10.8581 3.64226C10.8581 2.45657 11.8245 1.49023 13.0101 1.49023V0.990234C11.5483 0.990234 10.3581 2.18043 10.3581 3.64226H10.8581ZM11.1407 4.69722C10.9621 4.38285 10.8581 4.02546 10.8581 3.64226H10.3581C10.3581 4.11802 10.4876 4.55995 10.706 4.94428L11.1407 4.69722ZM5.47558 8.68551L11.0603 5.02993L10.7865 4.61158L5.20174 8.26716L5.47558 8.68551ZM3.40203 7.7355C4.11444 7.7355 4.74373 8.08485 5.13667 8.62365L5.54065 8.32903C5.05896 7.66854 4.28307 7.2355 3.40203 7.2355V7.7355ZM1.25 9.88754C1.25 8.70184 2.21636 7.7355 3.40203 7.7355V7.2355C1.94022 7.2355 0.75 8.4257 0.75 9.88754H1.25ZM3.40203 12.0396C2.21636 12.0396 1.25 11.0732 1.25 9.88754H0.75C0.75 11.3494 1.94022 12.5396 3.40203 12.5396V12.0396ZM5.13016 11.1576C4.73595 11.6904 4.10813 12.0396 3.40203 12.0396V12.5396C4.27752 12.5396 5.05027 12.1063 5.53212 11.4549L5.13016 11.1576ZM11.0526 14.745L5.46786 11.0969L5.19442 11.5156L10.7791 15.1636L11.0526 14.745ZM10.8581 16.1328C10.8581 15.751 10.9589 15.3876 11.1337 15.0769L10.698 14.8317C10.4821 15.2155 10.3581 15.6631 10.3581 16.1328H10.8581ZM13.0101 18.3044C14.2123 18.3044 15.1818 17.335 15.1818 16.1328H14.6818C14.6818 17.0589 13.9362 17.8044 13.0101 17.8044V18.3044ZM10.8385 16.1328C10.8385 17.335 11.8079 18.3044 13.0101 18.3044V17.8044C12.0841 17.8044 11.3385 17.0589 11.3385 16.1328H10.8385ZM13.0101 13.9612C11.8079 13.9612 10.8385 14.9306 10.8385 16.1328H11.3385C11.3385 15.2068 12.0841 14.4612 13.0101 14.4612V13.9612ZM15.1818 16.1328C15.1818 14.9306 14.2123 13.9612 13.0101 13.9612V14.4612C13.9362 14.4612 14.6818 15.2068 14.6818 16.1328H15.1818ZM5.07364 9.88754C5.07364 10.8136 4.32807 11.5592 3.40202 11.5592V12.0592C4.60421 12.0592 5.57364 11.0897 5.57364 9.88754H5.07364ZM3.40202 8.21591C4.32807 8.21591 5.07364 8.96148 5.07364 9.88754H5.57364C5.57364 8.68533 4.60421 7.71591 3.40202 7.71591V8.21591ZM1.73039 9.88754C1.73039 8.96148 2.47597 8.21591 3.40202 8.21591V7.71591C2.19982 7.71591 1.23039 8.68533 1.23039 9.88754H1.73039ZM3.40202 11.5592C2.47597 11.5592 1.73039 10.8136 1.73039 9.88754H1.23039C1.23039 11.0897 2.19982 12.0592 3.40202 12.0592V11.5592ZM13.0101 5.81388C14.2123 5.81388 15.1818 4.84446 15.1818 3.64226H14.6818C14.6818 4.56832 13.9362 5.31388 13.0101 5.31388V5.81388ZM10.8385 3.64226C10.8385 4.84446 11.8079 5.81388 13.0101 5.81388V5.31388C12.0841 5.31388 11.3385 4.56832 11.3385 3.64226H10.8385ZM13.0101 1.47064C11.8079 1.47064 10.8385 2.44007 10.8385 3.64226H11.3385C11.3385 2.71621 12.0841 1.97064 13.0101 1.97064V1.47064ZM15.1818 3.64226C15.1818 2.44007 14.2123 1.47064 13.0101 1.47064V1.97064C13.9362 1.97064 14.6818 2.71621 14.6818 3.64226H15.1818Z" fill="#F3F3F3"/>
</svg>
