<svg width="20" height="11" viewBox="0 0 20 11" fill="none" xmlns="http://www.w3.org/2000/svg">
<path d="M0.214844 5.01598C0.214844 2.25465 2.46951 -2.05374e-05 5.23084 -2.0296e-05L14.1482 -1.95164e-05C14.1735 -1.95142e-05 14.1988 -1.9512e-05 14.2242 -1.95098e-05C16.9855 -1.92684e-05 19.2148 2.25465 19.2148 5.01598C19.2148 7.77732 16.9855 10.032 14.2242 10.032C14.1988 10.032 14.1735 10.032 14.1482 10.032L5.23084 10.032C2.46951 10.032 0.214844 7.77731 0.214844 5.01598ZM10.5762 5.01598C10.5762 5.97865 10.9562 6.89065 11.6402 7.59998C12.3242 8.28398 13.2615 8.66398 14.2242 8.66398C15.1868 8.66398 16.0988 8.28398 16.7828 7.59998C17.4922 6.89065 17.8468 5.97865 17.8468 5.01598C17.8468 4.05331 17.4922 3.14131 16.7828 2.43198C16.0988 1.74798 15.1868 1.36798 14.2242 1.36798C13.2615 1.36798 12.3242 1.74798 11.6402 2.43198C10.9562 3.14131 10.5762 4.05331 10.5762 5.01598Z" fill="black"/>
</svg>
