<svg width="19" height="11" viewBox="0 0 19 11" fill="none" xmlns="http://www.w3.org/2000/svg">
<g clip-path="url(#clip0)">
<path d="M19 5.016C19 7.77733 16.7453 10.032 13.984 10.032L5.06667 10.032C5.04133 10.032 5.016 10.032 4.99067 10.032C2.22933 10.032 0 7.77733 0 5.016C0 2.25467 2.22933 0 4.99067 0C5.016 0 5.04133 0 5.06667 0L13.984 0C16.7453 0 19 2.25467 19 5.016ZM8.63867 5.016C8.63867 4.05333 8.25867 3.14133 7.57467 2.432C6.89067 1.748 5.95333 1.368 4.99067 1.368C4.028 1.368 3.116 1.748 2.432 2.432C1.72267 3.14133 1.368 4.05333 1.368 5.016C1.368 5.97867 1.72267 6.89067 2.432 7.6C3.116 8.284 4.028 8.664 4.99067 8.664C5.95333 8.664 6.89067 8.284 7.57467 7.6C8.25867 6.89067 8.63867 5.97867 8.63867 5.016Z" fill="#F3F3F3"/>
</g>
<defs>
<clipPath id="clip0">
<rect width="19" height="10.032" fill="white"/>
</clipPath>
</defs>
</svg>
